<svg version="1.2" xmlns="http://www.w3.org/2000/svg" viewBox="0 0 178 61" width="100" height="34">
	<title>MOVI-svg</title>
	<style>
		.s0 { fill: none;stroke: #000000;stroke-width: 6.3 } 
		.s1 { fill: #ee0101 } 
		.s2 { fill: none;stroke: #000000;stroke-width: 4.4 } 
		.s3 { fill: #ffffff } 
	</style>
	<path fill-rule="evenodd" class="s0" d="m141 7.7l5.4 12.2 9-12.2h15.1l-18.5 22 13.4 25.2h-14.7l-7.5-15.4-13.2 15.4h-14.9l22.5-25.2-11.6-22z"/>
	<g>
		<g>
			<g>
				<path class="s1" d="m141.1 7.7l5.3 12.2 9-12.2h15.1l-18.5 22 13.4 25.2h-14.7l-7.5-15.4-13.2 15.4h-14.9l22.5-25.2-11.6-22z"/>
			</g>
		</g>
	</g>
	<path fill-rule="evenodd" class="s2" d="m24.9 16.3l3.9 17.5 9.8-17.5h8.5l-0.1 15.5q-0.3 1.7-0.3 3.6 0 1.7 0.2 3.3v10.4h-8.6l0.6-18.9-10.9 18.9h-3.4l-4.6-18.9h-0.1l-5.7 18.9h-8.5l10.8-32.8zm58.6 13.2q0 4.8-2.8 9.9-2.7 5.1-7.7 8-5 2.8-10.8 2.8-6.9 0-11.2-4-3.2-3.1-4.1-7.5l0.1-6.9q0.6-3.5 2.5-6.5 2.9-4.7 7.9-7.4 5-2.7 10.3-2.7 4.3 0 8 1.8 3.6 1.9 5.7 5.1 2.1 3.3 2.1 7.4zm-20 12.4q3 0 5.5-1.6 2.5-1.6 4-4.2 1.4-2.6 1.4-5.1 0-3.2-2.3-5.4-2.4-2.1-5.7-2.1-2.6 0-5.1 1.4-2.5 1.4-4.1 3.7-1.5 2.4-1.5 5.2 0 3.6 2.2 5.9 2.2 2.3 5.6 2.2zm27.4-25.6l4.8 19.9 11.1-19.9h9.3l-19.2 32.8h-6.6l-8.7-32.8z"/>
	<g>
		<g>
			<g>
				<path class="s3" d="m24.9 16.3l3.9 17.5 9.8-17.5h8.5l-0.2 32.8h-8.6l0.6-18.9h-0.1l-10.8 18.9h-3.4l-4.6-18.9h-0.1l-5.7 18.9h-8.5l10.8-32.8z"/>
			</g>
		</g>
	</g>
	<g>
		<g>
			<g>
				<path fill-rule="evenodd" class="s3" d="m83.5 29.5q0 4.8-2.8 9.9-2.7 5.1-7.7 8-5 2.8-10.8 2.8-6.9 0-11.2-4-4.3-4.1-4.3-10.8 0-5.5 2.8-10.1 2.9-4.7 7.9-7.4 5-2.7 10.3-2.7 4.3 0 7.9 1.8 3.7 1.9 5.8 5.1 2.1 3.2 2.1 7.4zm-20 12.5q3 0 5.5-1.7 2.5-1.6 4-4.2 1.4-2.6 1.5-5.1-0.1-3.2-2.4-5.3-2.4-2.2-5.7-2.2-2.6 0-5.1 1.4-2.5 1.4-4.1 3.7-1.5 2.4-1.5 5.2 0 3.6 2.2 5.9 2.2 2.3 5.6 2.3z"/>
			</g>
		</g>
	</g>
	<g>
		<g>
			<g>
				<path class="s3" d="m90.9 16.3l4.8 19.9 11.1-19.9h9.3l-19.2 32.8h-6.6l-8.7-32.8z"/>
			</g>
		</g>
	</g>
	<path fill-rule="evenodd" class="s2" d="m127.1 16.3l-5.1 32.8h-8.6l5.2-32.8z"/>
	<g>
		<g>
			<g>
				<path class="s3" d="m127.1 16.3l-5.1 32.8h-8.6l5.2-32.8z"/>
			</g>
		</g>
	</g>
</svg>